<svg width="100%" height="100%" viewBox="0 0 24 24" fill="#0F0F0F" xmlns="http://www.w3.org/2000/svg"><path d="M17 16.827V13.13c0-1.98-1.058-2.902-2.468-2.902-1.139 0-1.647.626-1.932 1.066v.02h-.014l.014-.02v-.914h-2.144c.029.605 0 6.447 0 6.447H12.6v-3.601c0-.192.015-.384.071-.522.155-.386.508-.784 1.1-.784.776 0 1.086.591 1.086 1.457v3.45H17zM7 8.385c0-.632.48-1.114 1.213-1.114.734 0 1.185.482 1.199 1.114 0 .619-.465 1.115-1.213 1.115h-.014C7.466 9.5 7 9.005 7 8.385zM9.271 10.38v6.447H7.127V10.38h2.144z" fill="#0F0F0F"/><path fill-rule="evenodd" clip-rule="evenodd" d="M2 12c0 5.523 4.477 10 10 10s10-4.477 10-10S17.523 2 12 2 2 6.477 2 12zm15.657 5.657A8 8 0 116.343 6.342a8 8 0 0111.314 11.315z" fill="#0F0F0F"/></svg>