<svg width="100%" height="100%" viewBox="0 0 24 24" fill="#757575" xmlns="http://www.w3.org/2000/svg"><path d="M11.426 22.569L12 21.75l.573.82a1 1 0 01-1.147-.001z" fill="#757575"/><path fill-rule="evenodd" clip-rule="evenodd" d="M12 5.75a4 4 0 100 8 4 4 0 000-8zm-2 4a2 2 0 114 0 2 2 0 01-4 0z" fill="#757575"/><path fill-rule="evenodd" clip-rule="evenodd" d="M11.426 22.569L12 21.75c.573.82.575.818.575.818l.002-.001.006-.004.02-.015.07-.05.257-.192a25.395 25.395 0 003.575-3.368c1.932-2.223 3.995-5.453 3.995-9.188a8.5 8.5 0 10-17 0c0 3.735 2.063 6.965 3.995 9.187a25.4 25.4 0 003.575 3.369 14.361 14.361 0 00.327.242l.02.015.006.004.003.002zM7.404 5.154A6.5 6.5 0 0118.5 9.75c0 3.015-1.687 5.785-3.505 7.875A23.403 23.403 0 0112 20.495a23.4 23.4 0 01-2.995-2.869C7.187 15.534 5.5 12.764 5.5 9.75a6.5 6.5 0 011.904-4.596z" fill="#757575"/></svg>