<svg xmlns="http://www.w3.org/2000/svg" width="100%" viewBox="0 0 112 32" fill="none">
                <path fill-rule="evenodd" clip-rule="evenodd" d="M0 4.5666C0 2.0445 2.04989 0 4.56664 0H27.4256C29.948 0 31.9925 2.04983 31.9925 4.5666V27.4256C31.9925 29.9477 29.9426 31.9922 27.4259 31.9922H4.56664C2.04456 31.9925 0 29.9424 0 27.4256V4.5666ZM9.91839 21.3282C13.282 21.3282 14.8538 19.4907 14.8538 16.8836V10.6643H12.1188V16.8052C12.1188 18.0458 11.3643 18.9412 9.91809 18.9412C8.45621 18.9412 7.70172 18.0461 7.70172 16.8052V10.6643H4.95095V16.8993C4.95125 19.475 6.55473 21.3282 9.91839 21.3282ZM22.6218 21.3282C25.0672 21.3282 26.3883 19.8753 27.0415 18.5619L24.7937 17.48C24.4596 18.2989 23.594 18.9791 22.6218 18.9791C20.9662 18.9791 19.797 17.6807 19.797 15.9962C19.797 14.2961 20.9665 13.0134 22.6218 13.0134C23.5937 13.0134 24.4596 13.6936 24.7937 14.5125L27.0415 13.4152C26.3883 12.0707 25.0672 10.6643 22.6218 10.6643C19.5082 10.6643 17.1389 12.8127 17.1389 15.9962C17.1389 19.1644 19.5082 21.3282 22.6218 21.3282ZM61.1917 6.21562C60.1119 6.21562 59.3489 6.69071 58.8018 7.32416V3.32189H56.7719V14.2633H58.7442V13.2844C59.2913 13.9466 60.0687 14.4505 61.1917 14.4505C63.4231 14.4505 65.1076 12.6941 65.1076 10.3475C65.1076 8.0008 63.4231 6.21562 61.1917 6.21562ZM60.8749 12.5933C59.5792 12.5933 58.7154 11.5712 58.7154 10.3331C58.7154 9.10935 59.5792 8.08718 60.8749 8.08718C62.1706 8.08718 63.0344 9.09495 63.0344 10.3331C63.0344 11.5712 62.1706 12.5933 60.8749 12.5933ZM48.8297 10.3763C48.8297 13.1836 46.9149 14.4505 44.6834 14.4505C42.4376 14.4505 40.5228 13.1836 40.5228 10.3763V3.62422H42.6679V10.2323C42.6679 11.6863 43.4885 12.3774 44.6834 12.3774C45.864 12.3774 46.6702 11.6576 46.6702 10.2323V3.62422H48.8297V10.3763ZM52.7423 14.2633H50.7124V6.41717H52.6559V7.46813C53.1454 6.60433 53.894 6.20122 54.8154 6.20122C55.1033 6.20122 55.4489 6.25881 55.7656 6.37398L55.5928 8.31753C55.2761 8.21675 54.9594 8.15917 54.6571 8.15917C53.5917 8.15917 52.7423 8.82141 52.7423 10.5346V14.2633ZM72.5036 7.35295V6.41717H74.4328V14.2633H72.5036V13.3564C71.9277 13.9754 71.1071 14.4505 69.9986 14.4505C67.7239 14.4505 66.1115 12.6365 66.1115 10.3043C66.1115 7.94322 67.7671 6.21562 69.9986 6.21562C71.1071 6.21562 71.9133 6.70511 72.5036 7.35295ZM68.1414 10.3331C68.1414 11.5856 69.034 12.6077 70.3297 12.6077C71.6254 12.6077 72.5324 11.5712 72.5324 10.3331C72.5324 9.10935 71.6254 8.07279 70.3297 8.07279C69.0196 8.07279 68.1414 9.10935 68.1414 10.3331ZM76.258 14.2633H78.2879V10.0595C78.2879 8.879 79.0221 8.07279 80.0875 8.07279C81.0665 8.07279 81.7431 8.74943 81.7431 10.0163V14.2633H83.773V9.46926C83.773 7.25218 82.2902 6.20122 80.7065 6.20122C79.5404 6.20122 78.6478 6.77709 78.2447 7.51132V6.41717H76.258V14.2633ZM50.1974 26.5581C49.2616 27.8394 47.5484 28.8184 45.504 28.8184C42.4664 28.8184 40.0333 26.6301 40.0333 23.3764C40.0333 20.094 42.5383 17.8337 45.5328 17.8337C47.5052 17.8337 49.1896 18.7407 50.111 20.0364L48.6857 21.4329C47.9515 20.5259 46.9005 19.8924 45.648 19.8924C43.7477 19.8924 42.2504 21.3465 42.2504 23.3764C42.2504 25.3488 43.7189 26.774 45.6336 26.774C46.8861 26.774 47.9803 26.155 48.7289 25.2192L50.1974 26.5581ZM55.0892 28.8615C57.5942 28.8615 59.293 27.0188 59.293 24.7297C59.293 22.4694 57.5942 20.5979 55.0892 20.5979C52.5842 20.5979 50.8854 22.4694 50.8854 24.7297C50.8854 27.0188 52.5842 28.8615 55.0892 28.8615ZM55.0892 26.9756C53.8655 26.9756 52.9153 25.9822 52.9153 24.7297C52.9153 23.4916 53.8655 22.4982 55.0892 22.4982C56.3129 22.4982 57.2631 23.4916 57.2631 24.7297C57.2631 25.9822 56.3129 26.9756 55.0892 26.9756ZM67.4026 21.9799C67.9784 21.1018 69.0582 20.5979 70.2099 20.5979C71.9951 20.5979 73.406 21.764 73.406 23.9235V28.66H71.3761V24.2978C71.3761 23.0597 70.7138 22.4694 69.8068 22.4694C68.8135 22.4694 68.0792 23.1893 68.0792 24.3554V28.66H66.0493V24.3122C66.0493 23.1317 65.4158 22.4694 64.4657 22.4694C63.5011 22.4694 62.7525 23.1605 62.7525 24.3698V28.66H60.7225V20.8138H62.7093V21.9368C63.1556 21.1018 64.0914 20.5835 65.0991 20.5979C66.0349 20.5979 66.9563 21.0298 67.4026 21.9799ZM79.6535 20.6123C78.5449 20.6123 77.7387 21.1161 77.1628 21.7784V20.8138H75.1473V31.8848H77.1772V27.753C77.7531 28.3721 78.5449 28.8471 79.6391 28.8471C81.8993 28.8471 83.5117 27.0044 83.5117 24.7297C83.5117 22.455 81.8993 20.6123 79.6535 20.6123ZM79.2935 26.99C77.9978 26.99 77.134 25.9822 77.134 24.7441C77.134 23.506 77.9978 22.4982 79.2935 22.4982C80.6036 22.4982 81.4674 23.506 81.4674 24.7441C81.4674 25.9822 80.6036 26.99 79.2935 26.99ZM90.9212 21.7496V20.8138H92.8503V28.66H90.9212V27.753C90.3453 28.3721 89.5247 28.8471 88.4162 28.8471C86.1415 28.8471 84.5291 27.0332 84.5291 24.7009C84.5291 22.3399 86.1847 20.6123 88.4162 20.6123C89.5247 20.6123 90.3309 21.1018 90.9212 21.7496ZM86.559 24.7297C86.559 25.9822 87.4516 27.0044 88.7473 27.0044C90.043 27.0044 90.95 25.9678 90.95 24.7297C90.95 23.506 90.043 22.4694 88.7473 22.4694C87.4372 22.4694 86.559 23.506 86.559 24.7297ZM94.6756 28.66H96.7055V24.4562C96.7055 23.2756 97.4397 22.4694 98.5051 22.4694C99.484 22.4694 100.161 23.1461 100.161 24.413V28.66H102.191V23.8659C102.191 21.6488 100.708 20.5979 99.1241 20.5979C97.958 20.5979 97.0654 21.1737 96.6623 21.908V20.8138H94.6756V28.66ZM107.174 25.9246L108.959 20.8138H111.176L108.023 29.0487C107.274 30.9778 106.295 32 104.697 32C104.107 32 103.574 31.856 103.186 31.6113L103.531 29.9125C103.834 30.0565 104.179 30.1716 104.539 30.1716C105.187 30.1716 105.662 29.7973 106.065 28.9335L106.223 28.5736L102.797 20.8138H105.144L107.174 25.9246Z" fill="#333"/>
              </svg>